<?xml version="1.0" encoding="UTF-8" standalone="no"?>
<svg
   width="496"
   height="86.800003"
   viewBox="0 0 496 86.800003"
   fill="none"
   version="1.1"
   id="svg30"
   sodipodi:docname="AWS-Marketplace_logos_RGB-mixed copy.svg"
   inkscape:version="1.2 (dc2aeda, 2022-05-15)"
   xmlns:inkscape="http://www.inkscape.org/namespaces/inkscape"
   xmlns:sodipodi="http://sodipodi.sourceforge.net/DTD/sodipodi-0.dtd"
   xmlns="http://www.w3.org/2000/svg"
   xmlns:svg="http://www.w3.org/2000/svg">
  <defs
     id="defs34" />
  <sodipodi:namedview
     id="namedview32"
     pagecolor="#ffffff"
     bordercolor="#000000"
     borderopacity="0.25"
     inkscape:showpageshadow="2"
     inkscape:pageopacity="0.0"
     inkscape:pagecheckerboard="0"
     inkscape:deskcolor="#d1d1d1"
     showgrid="false"
     inkscape:zoom="1.1841332"
     inkscape:cx="512.61125"
     inkscape:cy="90.361456"
     inkscape:window-width="2114"
     inkscape:window-height="858"
     inkscape:window-x="2450"
     inkscape:window-y="405"
     inkscape:window-maximized="0"
     inkscape:current-layer="svg30" />
  <path
     d="m 186.58485,50.237318 v -23.37296 c 0,-2.279107 -0.4375,-3.927822 -1.31251,-5.043129 -0.87502,-1.066816 -2.23613,-1.648715 -4.08341,-1.648715 -3.3056,0 -6.65983,1.018324 -10.01404,3.054972 0.0488,0.339441 0.0488,0.678883 0.0488,1.018324 0,0.339441 0,0.727374 0,1.066816 v 24.827709 h -6.7573 V 26.767374 c 0,-2.279106 -0.43747,-3.927821 -1.31248,-5.043128 -0.87505,-1.066816 -2.23616,-1.648715 -4.08341,-1.648715 -3.45143,0 -6.7571,1.018324 -9.91682,3.00648 v 27.009833 h -6.75711 V 15.662793 h 5.63899 l 0.68058,3.442905 c 4.37505,-3.00648 8.60431,-4.461229 12.73635,-4.461229 4.22924,0 7.09734,1.600224 8.55567,4.800671 4.47231,-3.200447 8.99322,-4.800671 13.46555,-4.800671 3.11114,0 5.54174,0.872849 7.19458,2.667039 1.70142,1.745699 2.52781,4.267263 2.52781,7.516201 v 25.264135 h -6.61125 z"
     fill="#ffffff"
     id="path2"
     style="stroke-width:0.485518" />
  <path
     d="m 221.19656,50.237318 -0.53472,-3.539888 c -1.65284,1.406257 -3.45143,2.473073 -5.39591,3.248939 -1.99313,0.775866 -3.93759,1.163799 -5.88203,1.163799 -3.20843,0 -5.78486,-0.921341 -7.72934,-2.764023 -1.94445,-1.842681 -2.91671,-4.267262 -2.91671,-7.370726 0,-3.29743 1.16669,-5.964469 3.54869,-7.904134 2.38199,-1.988157 5.54177,-2.957989 9.52795,-2.957989 2.62504,0 5.49314,0.387933 8.55568,1.163799 v -4.461229 c 0,-2.424581 -0.5347,-4.170279 -1.65281,-5.140112 -1.11805,-1.018324 -3.01396,-1.50324 -5.6876,-1.50324 -3.84037,0 -7.82649,0.678883 -11.95856,2.08514 v -4.752179 c 1.65284,-0.872849 3.64593,-1.50324 5.97932,-1.988157 2.38199,-0.484916 4.76397,-0.727374 7.14596,-0.727374 4.32644,0 7.48624,0.872849 9.5279,2.667039 2.04173,1.79419 3.06258,4.509721 3.06258,8.195084 v 24.585251 z m -10.2085,-4.218771 c 3.06253,0 6.22235,-1.163798 9.38211,-3.442905 v -6.934301 c -2.382,-0.5819 -4.76399,-0.872849 -7.19458,-0.872849 -5.10424,0 -7.68067,1.988156 -7.68067,5.915977 0,1.697207 0.48608,3.054972 1.40976,3.976313 0.97223,0.872849 2.33332,1.357765 4.08338,1.357765 z"
     fill="#ffffff"
     id="path4"
     style="stroke-width:0.485518" />
  <path
     d="m 234.51628,50.237318 v -34.42905 h 5.63893 l 0.72918,5.09162 c 1.26395,-1.357765 2.4306,-2.424581 3.54872,-3.151955 1.11805,-0.727374 2.18753,-1.309274 3.35422,-1.648715 1.11806,-0.339441 2.38199,-0.533408 3.69451,-0.533408 0.87498,0 1.79865,0.04849 2.77088,0.193967 v 6.109944 c -1.45837,-0.193967 -2.67363,-0.29095 -3.69454,-0.29095 -3.64586,0 -6.75703,1.066816 -9.33346,3.248938 v 25.409609 z"
     fill="#ffffff"
     id="path6"
     style="stroke-width:0.485518" />
  <path
     d="M 258.43335,50.237318 V 0 h 6.75703 v 30.84067 l 14.6322,-14.98391 h 8.21546 l -16.33365,16.341676 17.40309,18.038882 h -8.50709 L 265.14177,33.944134 v 16.293184 z"
     fill="#ffffff"
     id="path8"
     style="stroke-width:0.485518" />
  <path
     d="m 295.2812,34.477542 c 0.0972,3.87933 1.06947,6.788827 2.91674,8.631508 1.84724,1.842682 4.66676,2.764023 8.55566,2.764023 3.59733,0 7.24319,-0.678883 10.93774,-2.08514 v 4.80067 c -3.257,1.745699 -7.24319,2.667039 -11.95857,2.667039 -5.59037,0 -9.81961,-1.551731 -12.63907,-4.606703 -2.86813,-3.054973 -4.2779,-7.613185 -4.2779,-13.626146 0,-5.770502 1.40977,-10.231732 4.2779,-13.383687 2.86807,-3.151955 6.85426,-4.80067 11.95853,-4.80067 4.32647,0 7.63208,1.21229 9.91683,3.636871 2.33338,2.424581 3.45143,5.867486 3.45143,10.280224 0,2.133631 -0.19446,4.073296 -0.53472,5.770503 H 295.2812 Z m 9.38214,-14.595978 c -2.86815,0 -5.10425,0.872849 -6.65984,2.521564 -1.60423,1.697207 -2.4792,4.218771 -2.7223,7.564693 h 16.96558 c 0.0488,-0.339441 0.0488,-0.969832 0.0488,-1.745698 0,-2.764022 -0.63198,-4.849162 -1.94446,-6.255419 -1.26398,-1.357765 -3.15981,-2.08514 -5.68763,-2.08514 z"
     fill="#ffffff"
     id="path10"
     style="stroke-width:0.485518" />
  <path
     d="m 344.76818,49.412961 c -2.23617,0.872849 -4.76398,1.309274 -7.53484,1.309274 -6.4654,0 -9.67378,-3.200447 -9.67378,-9.649833 V 21.093855 h -6.27097 v -4.364246 l 6.4654,-0.824358 1.02083,-9.7953069 h 5.49318 v 9.6498329 h 10.20853 v 5.285586 H 334.268 v 19.687598 c 0,1.697207 0.38892,2.861005 1.11807,3.539888 0.72915,0.678883 2.04171,1.018324 3.84037,1.018324 1.84726,0 3.6945,-0.242458 5.49313,-0.678882 v 4.80067 z"
     fill="#ffffff"
     id="path12"
     style="stroke-width:0.485518" />
  <path
     d="M 349.38634,64.202905 V 15.808268 h 5.63895 l 0.63194,3.539888 c 3.4515,-3.054972 7.2918,-4.558212 11.52106,-4.558212 4.42369,0 7.87512,1.600224 10.40294,4.800671 2.52788,3.200446 3.79176,7.516201 3.79176,12.995754 0,5.576536 -1.36116,10.037765 -4.0348,13.383687 -2.67364,3.345922 -6.22232,5.043128 -10.69462,5.043128 -4.08341,0 -7.58345,-1.357765 -10.54879,-4.024804 v 17.263017 h -6.70844 z M 365.2338,20.221006 c -3.20839,0 -6.27089,1.018324 -9.13902,3.103463 v 18.960224 c 2.96534,2.182123 5.93063,3.248938 8.9932,3.248938 6.27096,0 9.38211,-4.218771 9.38211,-12.607821 0,-4.315754 -0.77776,-7.467709 -2.28475,-9.552849 -1.45836,-2.08514 -3.79174,-3.151955 -6.95154,-3.151955 z"
     fill="#ffffff"
     id="path14"
     style="stroke-width:0.485518" />
  <path
     d="m 399.84556,49.752402 c -1.50699,0.533408 -3.11119,0.824358 -4.90982,0.824358 -2.38198,0 -4.22922,-0.678883 -5.49317,-2.08514 -1.2639,-1.357765 -1.89584,-3.345922 -1.89584,-5.915978 V 0 h 6.75704 v 42.139218 c 0,1.018324 0.19443,1.79419 0.63197,2.279106 0.43751,0.484916 1.16667,0.727374 2.13889,0.727374 0.92368,0 1.84727,-0.04849 2.77093,-0.193966 z"
     fill="#ffffff"
     id="path16"
     style="stroke-width:0.485518" />
  <path
     d="m 425.90156,50.237318 -0.53475,-3.539888 c -1.65281,1.406257 -3.45143,2.473073 -5.39589,3.248939 -1.99313,0.775866 -3.93761,1.163799 -5.8821,1.163799 -3.20839,0 -5.78481,-0.921341 -7.72927,-2.764023 -1.94452,-1.842681 -2.91674,-4.267262 -2.91674,-7.370726 0,-3.29743 1.16672,-5.964469 3.54871,-7.904134 2.38199,-1.988157 5.54175,-2.957989 9.5279,-2.957989 2.62509,0 5.49318,0.387933 8.55574,1.163799 v -4.461229 c 0,-2.424581 -0.53475,-4.170279 -1.65281,-5.140112 -1.11808,-1.018324 -3.01396,-1.50324 -5.6876,-1.50324 -3.84036,0 -7.82654,0.678883 -11.95856,2.08514 v -4.752179 c 1.65281,-0.872849 3.64593,-1.50324 5.97925,-1.988157 2.38199,-0.484916 4.76398,-0.727374 7.14597,-0.727374 4.32648,0 7.48623,0.872849 9.52796,2.667039 2.04168,1.79419 3.06257,4.509721 3.06257,8.195084 v 24.585251 z m -10.20854,-4.218771 c 3.06256,0 6.22236,-1.163798 9.38214,-3.442905 v -6.934301 c -2.38199,-0.5819 -4.76398,-0.872849 -7.19458,-0.872849 -5.10424,0 -7.68066,1.988156 -7.68066,5.915977 0,1.697207 0.48608,3.054972 1.40969,3.976313 0.97227,0.872849 2.33338,1.357765 4.08341,1.357765 z"
     fill="#ffffff"
     id="path18"
     style="stroke-width:0.485518" />
  <path
     d="m 463.28416,48.928045 c -2.62503,1.357765 -5.6876,2.036648 -9.13903,2.036648 -5.34734,0 -9.43075,-1.551732 -12.29885,-4.606704 -2.81949,-3.054972 -4.27787,-7.46771 -4.27787,-13.286704 0,-5.770503 1.45838,-10.18324 4.37512,-13.335196 2.91668,-3.151955 7.04869,-4.703687 12.39603,-4.703687 3.06254,0 5.88203,0.630391 8.55567,1.891173 v 4.800671 c -2.57642,-0.824358 -5.10424,-1.212291 -7.63205,-1.212291 -3.79172,0 -6.56261,0.969833 -8.21542,2.909498 -1.70144,1.939664 -2.52781,4.994636 -2.52781,9.213407 v 0.872849 c 0,4.121788 0.87501,7.128269 2.52781,9.067933 1.70142,1.939665 4.37506,2.909498 8.06956,2.909498 2.4306,0 5.10427,-0.436425 8.02101,-1.357766 v 4.800671 z"
     fill="#ffffff"
     id="path20"
     style="stroke-width:0.485518" />
  <path
     d="m 472.86073,34.477542 c 0.0972,3.87933 1.06945,6.788827 2.91669,8.631508 1.84723,1.842682 4.66676,2.764023 8.5557,2.764023 3.59737,0 7.24335,-0.678883 10.93739,-2.08514 v 4.80067 c -3.25676,1.745699 -7.24301,2.667039 -11.95822,2.667039 -5.59036,0 -9.81962,-1.551731 -12.63911,-4.606703 -2.86815,-3.054973 -4.27784,-7.613185 -4.27784,-13.626146 0,-5.770502 1.40969,-10.231732 4.27784,-13.383687 2.8681,-3.151955 6.85425,-4.80067 11.95855,-4.80067 4.32621,0 7.6323,1.21229 9.9169,3.636871 2.3334,2.424581 3.45137,5.867486 3.45137,10.280224 0,2.133631 -0.19461,4.073296 -0.53488,5.770503 h -22.60439 z m 9.38207,-14.595978 c -2.8681,0 -5.10424,0.872849 -6.65981,2.521564 -1.60421,1.697207 -2.47921,4.218771 -2.72226,7.564693 h 16.96528 c 0.0488,-0.339441 0.0488,-0.969832 0.0488,-1.745698 0,-2.764022 -0.63174,-4.849162 -1.94432,-6.255419 -1.31257,-1.357765 -3.20848,-2.08514 -5.68769,-2.08514 z"
     fill="#ffffff"
     id="path22"
     style="stroke-width:0.485518" />
  <path
     d="m 105.014,51.255642 c -2.18753,0 -4.32648,-0.242458 -6.416817,-0.727374 -2.090283,-0.484916 -3.69447,-1.018324 -4.81256,-1.648715 -0.680544,-0.387933 -1.118076,-0.775866 -1.263901,-1.163799 -0.194432,-0.387933 -0.24304,-0.775866 -0.24304,-1.163799 v -2.085139 c 0,-0.87285 0.291649,-1.309274 0.923613,-1.309274 0.243041,0 0.486082,0.04849 0.77779,0.145475 0.243041,0.09698 0.631969,0.242458 1.069453,0.436424 1.409754,0.630391 2.916739,1.115308 4.569548,1.454749 1.652764,0.339441 3.305604,0.484916 4.958414,0.484916 2.62503,0 4.61808,-0.436424 6.07646,-1.357765 1.40977,-0.921341 2.13895,-2.230615 2.13895,-3.927821 0,-1.163799 -0.38889,-2.133632 -1.11806,-2.909498 -0.72921,-0.775866 -2.13894,-1.50324 -4.18064,-2.182123 l -6.0279,-1.891173 c -3.06256,-0.969832 -5.250088,-2.376089 -6.659813,-4.218771 -1.361161,-1.842681 -2.090342,-3.830838 -2.090342,-6.012961 0,-1.745698 0.388924,-3.29743 1.118076,-4.606703 0.729171,-1.309274 1.750055,-2.473073 2.965318,-3.394414 1.215336,-0.921341 2.673703,-1.648715 4.326481,-2.133631 1.65284,-0.484916 3.40286,-0.727374 5.25009,-0.727374 0.92363,0 1.84724,0.04849 2.81946,0.193966 0.92369,0.145475 1.8473,0.29095 2.67372,0.484916 0.82639,0.193967 1.65279,0.387933 2.38199,0.630391 0.72918,0.242458 1.31248,0.484916 1.75001,0.727375 0.58336,0.339441 0.97223,0.678882 1.2153,1.018324 0.24307,0.339441 0.34029,0.775865 0.34029,1.357765 v 1.939665 c 0,0.872849 -0.29168,1.309273 -0.92361,1.309273 -0.34033,0 -0.87505,-0.145474 -1.6042,-0.484916 -2.38199,-1.066815 -5.05566,-1.600223 -7.97237,-1.600223 -2.38199,0 -4.22924,0.387933 -5.54179,1.163799 -1.31251,0.775866 -1.944442,1.988156 -1.944442,3.685363 0,1.163799 0.388863,2.133631 1.215262,2.957989 0.8264,0.775866 2.33338,1.551732 4.56955,2.279106 l 5.88203,1.891173 c 3.01397,0.969832 5.15284,2.279106 6.41679,3.976313 1.26387,1.697207 1.94449,3.636871 1.94449,5.818994 0,1.79419 -0.34029,3.394414 -1.06949,4.800671 -0.72918,1.406257 -1.75001,2.667039 -3.01395,3.685363 -1.26387,1.018324 -2.81947,1.79419 -4.61813,2.327598 -1.79866,0.484916 -3.74311,0.775865 -5.88203,0.775865 z M 51.686682,50.140335 c -0.729181,0 -1.263944,-0.145475 -1.604201,-0.387933 -0.340316,-0.242458 -0.631965,-0.824357 -0.875006,-1.648715 L 39.485164,16.050726 c -0.24306,-0.824357 -0.340282,-1.357765 -0.340282,-1.648715 0,-0.678883 0.340282,-1.018324 1.020848,-1.018324 h 4.083407 c 0.777791,0 1.312521,0.145475 1.652807,0.387933 0.291672,0.242458 0.583343,0.824358 0.826403,1.648715 l 7.000039,27.397766 6.368139,-27.397766 c 0.194433,-0.824357 0.437547,-1.357765 0.777804,-1.648715 0.340316,-0.242458 0.875006,-0.387933 1.652795,-0.387933 h 3.354227 c 0.77779,0 1.312538,0.145475 1.652795,0.387933 0.340331,0.242458 0.583372,0.824358 0.777804,1.648715 l 6.562601,27.785699 7.19458,-27.785699 c 0.243041,-0.824357 0.534763,-1.357765 0.826412,-1.648715 0.291708,-0.242458 0.875006,-0.387933 1.652795,-0.387933 h 3.840368 c 0.680544,0 1.02083,0.339441 1.02083,1.018324 0,0.193967 -0.0488,0.387933 -0.0488,0.630391 -0.0488,0.242458 -0.145825,0.5819 -0.291659,1.018324 L 79.054985,48.103687 c -0.24304,0.824358 -0.534689,1.357766 -0.874976,1.648715 -0.340286,0.242458 -0.875049,0.387933 -1.604231,0.387933 h -3.548645 c -0.777804,0 -1.312552,-0.145475 -1.652809,-0.436424 -0.340258,-0.29095 -0.583328,-0.824358 -0.77779,-1.648715 L 64.131135,21.384804 57.714344,48.055196 c -0.194432,0.824357 -0.437503,1.357765 -0.777789,1.648715 -0.340257,0.290949 -0.875006,0.436424 -1.65281,0.436424 z m -33.396336,-4.50972 c 1.361137,0 2.770885,-0.242459 4.277856,-0.775866 1.506967,-0.484917 2.819495,-1.406257 3.937566,-2.66704 0.680572,-0.775865 1.166691,-1.648715 1.409751,-2.667039 0.24306,-0.969832 0.388891,-2.182123 0.388891,-3.588379 v -1.745699 c -1.2153,-0.29095 -2.479208,-0.533408 -3.840343,-0.678883 -1.312523,-0.145474 -2.625045,-0.242458 -3.888955,-0.242458 -2.770886,0 -4.812587,0.533408 -6.173724,1.648715 -1.36113,1.115308 -2.041701,2.715531 -2.041701,4.800671 0,1.939665 0.486119,3.394413 1.506973,4.364246 1.118077,1.066815 2.527822,1.551732 4.423686,1.551732 z m 16.868355,-6.303911 c 0,1.551732 0.145831,2.764022 0.48612,3.685363 0.291669,0.921341 0.777788,1.891173 1.36113,2.957989 0.194452,0.339441 0.291674,0.630391 0.291674,0.921341 0,0.436424 -0.24306,0.824357 -0.777793,1.21229 l -2.673656,1.842682 c -0.388893,0.242458 -0.72918,0.339441 -1.069462,0.339441 -0.437509,0 -0.826406,-0.193966 -1.215299,-0.581899 -0.583347,-0.5819 -1.069467,-1.212291 -1.506971,-1.939665 -0.388897,-0.678883 -0.826403,-1.50324 -1.263915,-2.424581 -3.257,3.830838 -7.340404,5.722011 -12.201602,5.722011 -3.500061,0 -6.270939,-0.969832 -8.2640289,-2.957989 -2.0417057,-1.988156 -3.0625563,-4.655195 -3.0625563,-7.952626 0,-3.539888 1.2639105,-6.352402 3.7917359,-8.534525 2.5278213,-2.133631 5.9306593,-3.248938 10.1598963,-3.248938 1.409749,0 2.868108,0.09698 4.375075,0.339441 1.506974,0.193967 3.111171,0.533408 4.763976,0.921341 v -3.054972 c 0,-3.151955 -0.631957,-5.334078 -1.944479,-6.643352 -1.312523,-1.260782 -3.548676,-1.939665 -6.757063,-1.939665 -1.458359,0 -2.965327,0.193967 -4.4723,0.533408 -1.506968,0.339441 -3.013942,0.824357 -4.472302,1.406257 -0.680564,0.29095 -1.1666835,0.484916 -1.4583589,0.533408 -0.291671,0.04849 -0.4861198,0.09698 -0.631953,0.09698 -0.5833464,0 -0.8750174,-0.436425 -0.8750174,-1.309274 v -2.036648 c 0,-0.678883 0.097227,-1.163799 0.291671,-1.454748 0.1944488,-0.29095 0.5833464,-0.5819 1.1666883,-0.87285 1.458356,-0.727374 3.20839,-1.357765 5.250092,-1.891173 2.041702,-0.533408 4.18063,-0.775866 6.465391,-0.775866 4.958423,0 8.555704,1.115308 10.88908,3.394414 2.284762,2.230614 3.45145,5.625028 3.45145,10.18324 v 13.529162 z"
     fill="#ffffff"
     id="path24"
     style="stroke-width:0.485518" />
  <path
     d="M 112.88913,71.379665 C 99.229148,81.465922 79.395492,86.8 62.332691,86.8 38.415654,86.8 16.880553,77.974525 0.54692389,63.281564 -0.71698678,62.117765 0.40108796,60.566034 1.9566707,61.438883 19.554212,71.670615 41.283758,77.780559 63.791068,77.780559 c 15.166891,0 31.840826,-3.151956 47.153572,-9.601341 2.28474,-0.969833 4.18065,1.551732 1.94449,3.200447 z"
     fill="#ff9900"
     id="path26"
     style="stroke-width:0.485518" />
  <path
     d="m 118.57672,64.881788 c -1.75001,-2.230615 -11.56962,-1.066816 -15.99332,-0.533408 -1.31255,0.145475 -1.55562,-1.018324 -0.34028,-1.842682 7.82654,-5.479553 20.66005,-3.879329 22.16704,-2.085139 1.50697,1.842681 -0.38887,14.692961 -7.72927,20.802905 -1.11812,0.92134 -2.18756,0.436424 -1.70142,-0.824358 1.65281,-4.073296 5.34728,-13.238212 3.59725,-15.517318 z"
     fill="#ff9900"
     id="path28"
     style="stroke-width:0.485518" />
</svg>
