<svg width="573" height="148" viewBox="0 0 573 148" fill="none" xmlns="http://www.w3.org/2000/svg">
<g clip-path="url(#clip0_4_4)">
<path d="M0.739014 125.602V33.09H28.239C34.491 33.09 39.919 34.274 44.524 36.638C49.128 39.004 52.698 42.341 55.233 46.65C57.767 50.958 59.034 56.071 59.034 61.984V96.58C59.034 102.41 57.767 107.5 55.233 111.85C52.698 116.203 49.128 119.581 44.523 121.99C39.918 124.397 34.491 125.601 28.239 125.601L0.739014 125.602ZM16.58 111.028H28.24C32.801 111.028 36.433 109.741 39.138 107.163C41.841 104.587 43.193 101.06 43.193 96.581V61.984C43.193 57.592 41.841 54.107 39.138 51.529C36.433 48.952 32.801 47.663 28.239 47.663H16.58V111.028ZM76.396 125.602V33.09H95.786L121.512 107.86C121.216 104.673 120.942 101.483 120.688 98.292C120.386 94.5366 120.154 90.776 119.991 87.012C119.821 83.169 119.738 79.812 119.738 76.938V33.09H134.185V125.602H114.795L89.323 50.832C89.491 53.283 89.703 56.239 89.956 59.702C90.2137 63.2478 90.4251 66.7967 90.59 70.348C90.758 73.982 90.844 77.318 90.844 80.36V125.602H76.396ZM181.582 126.869C175.245 126.869 169.752 125.812 165.107 123.701C160.46 121.591 156.889 118.569 154.398 114.64C151.905 110.711 150.616 106.086 150.533 100.763H166.374C166.374 104.565 167.747 107.543 170.494 109.698C173.238 111.852 176.976 112.929 181.709 112.929C186.271 112.929 189.839 111.874 192.417 109.761C194.993 107.65 196.282 104.735 196.282 101.017C196.282 97.892 195.374 95.167 193.558 92.842C191.74 90.52 189.142 88.936 185.764 88.09L175.119 85.175C167.852 83.318 162.256 79.979 158.327 75.164C154.398 70.348 152.434 64.518 152.434 57.675C152.434 52.438 153.616 47.875 155.982 43.988C158.347 40.103 161.705 37.103 166.058 34.99C170.408 32.88 175.54 31.822 181.455 31.822C190.409 31.822 197.506 34.125 202.745 38.729C207.983 43.335 210.645 49.523 210.73 57.295H194.888C194.888 53.663 193.704 50.812 191.34 48.741C188.974 46.671 185.637 45.636 181.328 45.636C177.188 45.636 173.978 46.608 171.697 48.551C169.416 50.495 168.275 53.24 168.275 56.788C168.275 60 169.141 62.724 170.873 64.962C172.603 67.202 175.119 68.786 178.413 69.714L189.439 72.756C196.789 74.616 202.407 77.932 206.294 82.704C210.179 87.478 212.124 93.371 212.124 100.383C212.124 105.623 210.856 110.248 208.322 114.26C205.787 118.273 202.239 121.378 197.677 123.574C193.114 125.77 187.748 126.869 181.582 126.869ZM257.366 126.869C251.366 126.869 246.17 125.729 241.778 123.448C237.384 121.167 233.985 117.957 231.577 113.816C229.169 109.678 227.965 104.818 227.965 99.242V59.45C227.965 53.874 229.169 49.017 231.577 44.876C233.984 40.738 237.384 37.526 241.778 35.245C246.17 32.964 251.366 31.823 257.366 31.823C263.449 31.823 268.665 32.963 273.017 35.245C277.367 37.526 280.747 40.738 283.156 44.876C285.563 49.016 286.767 53.874 286.767 59.45V99.243C286.767 104.819 285.563 109.679 283.156 113.817C280.748 117.957 277.346 121.167 272.954 123.449C268.56 125.729 263.364 126.869 257.366 126.869ZM257.366 113.183C261.758 113.183 265.265 111.915 267.885 109.381C270.502 106.846 271.813 103.468 271.813 99.242V59.45C271.813 55.227 270.503 51.846 267.885 49.312C265.265 46.777 261.758 45.51 257.366 45.51C252.972 45.51 249.466 46.777 246.848 49.312C244.228 51.846 242.918 55.227 242.918 59.45V99.243C242.918 103.469 244.228 106.847 246.848 109.382C249.465 111.916 252.972 113.183 257.366 113.183ZM257.366 87.583C254.915 87.583 252.909 86.781 251.346 85.175C249.782 83.571 249.002 81.5 249.002 78.965C249.002 76.431 249.762 74.403 251.283 72.883C252.803 71.362 254.831 70.601 257.366 70.601C259.901 70.601 261.928 71.361 263.449 72.883C264.969 74.403 265.73 76.431 265.73 78.966C265.73 81.5 264.97 83.571 263.45 85.176C261.928 86.781 259.9 87.583 257.366 87.583Z" fill="black"/>
<path d="M332.69 126.999C329.057 126.999 326.164 125.941 324.01 123.831C321.855 121.72 320.778 118.847 320.778 115.213C320.778 111.581 321.855 108.686 324.01 106.532C326.164 104.378 329.057 103.3 332.69 103.3C336.322 103.3 339.217 104.378 341.372 106.532C343.526 108.686 344.603 111.582 344.603 115.213C344.603 118.847 343.526 121.72 341.372 123.831C339.217 125.941 336.322 126.999 332.691 126.999H332.69ZM381.862 125.732V33.219H437.369V47.032H397.449V71.112H432.934V84.798H397.45V111.918H437.37V125.732H381.862ZM484.766 126.999C475.725 126.999 468.65 124.528 463.539 119.585C458.426 114.643 455.872 107.906 455.872 99.372V33.219H471.84V99.245C471.84 103.639 472.937 107.061 475.135 109.51C477.331 111.962 480.54 113.185 484.766 113.185C488.905 113.185 492.095 111.962 494.334 109.51C496.572 107.06 497.693 103.639 497.693 99.245V33.219H513.66V99.372C513.66 107.906 511.126 114.642 506.057 119.585C500.987 124.528 493.891 126.999 484.767 126.999H484.766Z" fill="#686868"/>
<path d="M549 0H573V148H549V0Z" fill="#FFCC03"/>
</g>
<defs>
<clipPath id="clip0_4_4">
<rect width="573" height="148" fill="white"/>
</clipPath>
</defs>
</svg>
