<?xml version="1.0" encoding="utf-8"?>
<!-- Generator: Adobe Illustrator 25.2.3, SVG Export Plug-In . SVG Version: 6.00 Build 0)  -->
<svg version="1.1" id="Layer_1" xmlns="http://www.w3.org/2000/svg" xmlns:xlink="http://www.w3.org/1999/xlink" x="0px" y="0px"
	 viewBox="0 0 288 96.3" style="enable-background:new 0 0 288 96.3;" xml:space="preserve">
<style type="text/css">
	.st0{fill:#DC205E;}
</style>
<g>
	<path d="M57.6,25.9v66.3H45V67.9c-3.1,3.6-7.5,6.1-13.8,6.1C18.3,74,8.5,63.4,8.5,49.3c0-14.1,9.8-24.7,22.7-24.7
		c6.4,0,11,2.6,14,6.4v-5.2H57.6z M45.6,49.3c0-7.4-4.9-12.9-12.1-12.9c-7.4,0-12.1,5.8-12.1,12.9c0,7.2,4.7,12.9,12.1,12.9
		C40.7,62.3,45.6,56.8,45.6,49.3z"/>
	<path d="M65.1,52.8V25.9h12.6v25.8c0,7.5,4.1,10.6,9.6,10.6c5.4,0,9.6-3.1,9.6-10.6V25.9h12.6v26.9c0,14.8-10.5,21.2-22.2,21.2
		C75.6,74,65.1,67.7,65.1,52.8z"/>
	<path d="M165.7,25.9v46.9h-12.4v-5.2c-3.1,3.8-7.6,6.4-14,6.4c-12.9,0-22.7-10.6-22.7-24.7c0-14.1,9.8-24.7,22.7-24.7
		c6.4,0,11,2.6,14,6.4v-5.2H165.7z M153.8,49.3c0-7.4-4.9-12.9-12.1-12.9c-7.4,0-12.1,5.8-12.1,12.9c0,7.2,4.7,12.9,12.1,12.9
		C148.9,62.3,153.8,56.8,153.8,49.3z"/>
	<path d="M221.9,3.1v69.8h-12.4v-5.2c-3.1,3.8-7.6,6.4-14,6.4c-12.9,0-22.7-10.6-22.7-24.7c0-14.1,9.8-24.7,22.7-24.7
		c6.3,0,10.8,2.5,13.8,6.1V3.1H221.9z M209.9,49.3c0-7.4-4.9-12.9-12.1-12.9c-7.4,0-12.1,5.8-12.1,12.9c0,7.2,4.7,12.9,12.1,12.9
		C205,62.3,209.9,56.8,209.9,49.3z"/>
	<path class="st0" d="M279.9,46c0,6.2-2.3,11.8-6.4,17.9l-18.8,28.3h-15.6l16.7-23.7c-1,0.1-2,0.2-3.3,0.2
		c-13.6,0-23.4-9.8-23.4-22.5c0-13.2,10.9-23.1,25.4-23.1C269,23.1,279.9,32.9,279.9,46z M266.5,46.1c0-6.7-5.1-11.3-12-11.3
		c-6.9,0-12,4.7-12,11.3c0,6.6,5.1,11.2,12,11.2C261.4,57.4,266.5,52.8,266.5,46.1z"/>
</g>
</svg>
