<svg width="39" height="6" viewBox="0 0 39 6" fill="none" xmlns="http://www.w3.org/2000/svg">
<path d="M0.451731 2.66267C0.315048 2.79935 0.315048 3.02096 0.451731 3.15764L2.67912 5.38503C2.8158 5.52171 3.03741 5.52171 3.17409 5.38503C3.31078 5.24835 3.31078 5.02674 3.17409 4.89006L1.19419 2.91016L3.17409 0.930257C3.31078 0.793574 3.31078 0.571966 3.17409 0.435282C3.03741 0.298599 2.8158 0.298599 2.67912 0.435282L0.451731 2.66267ZM38.3807 3.15764C38.5174 3.02096 38.5174 2.79935 38.3807 2.66267L36.1533 0.435282C36.0166 0.298599 35.795 0.298599 35.6583 0.435282C35.5216 0.571966 35.5216 0.793574 35.6583 0.930257L37.6382 2.91016L35.6583 4.89006C35.5216 5.02674 35.5216 5.24835 35.6583 5.38503C35.795 5.52171 36.0166 5.52171 36.1533 5.38503L38.3807 3.15764ZM0.699219 3.26016H38.1332V2.56016H0.699219V3.26016Z" fill="#03543F"/>
</svg>
