<?xml version="1.0" encoding="UTF-8"?>
<!DOCTYPE svg PUBLIC "-//W3C//DTD SVG 1.1//EN" "http://www.w3.org/Graphics/SVG/1.1/DTD/svg11.dtd">
<svg xmlns="http://www.w3.org/2000/svg" version="1.1" width="266px" height="46px" style="shape-rendering:geometricPrecision; text-rendering:geometricPrecision; image-rendering:optimizeQuality; fill-rule:evenodd; clip-rule:evenodd" xmlns:xlink="http://www.w3.org/1999/xlink">
<g><path style="opacity:1" fill="#08a8f9" d="M 44.5,45.5 C 33.8333,45.5 23.1667,45.5 12.5,45.5C 10.1495,43.6408 8.31617,41.3075 7,38.5C 6.33333,28.1667 6.33333,17.8333 7,7.5C 8.5,4.66667 10.6667,2.5 13.5,1C 23.8333,0.333333 34.1667,0.333333 44.5,1C 47,2.16667 48.8333,4 50,6.5C 50.6667,17.5 50.6667,28.5 50,39.5C 48.6403,42.0226 46.807,44.0226 44.5,45.5 Z"/></g>
<g><path style="opacity:1" fill="#ecedec" d="M 109.5,8.5 C 111.312,8.77128 112.978,9.43795 114.5,10.5C 113.157,12.7841 113.824,13.6174 116.5,13C 115.167,12.3333 115.167,11.6667 116.5,11C 117.793,10.51 119.127,10.3433 120.5,10.5C 120.343,11.8734 120.51,13.2068 121,14.5C 122.356,13.6198 123.856,13.2865 125.5,13.5C 125.162,8.6687 127.162,7.33537 131.5,9.5C 131.67,10.8221 131.337,11.9887 130.5,13C 132.81,13.4966 135.143,13.6633 137.5,13.5C 137.5,14.8333 137.5,16.1667 137.5,17.5C 135.304,17.41 133.137,17.0767 131,16.5C 130.167,16.8333 129.333,17.1667 128.5,17.5C 129.689,18.4287 131.022,18.762 132.5,18.5C 132.67,19.8221 132.337,20.9887 131.5,22C 133.134,22.4935 134.801,22.6602 136.5,22.5C 136.5,23.8333 136.5,25.1667 136.5,26.5C 134.712,26.2148 133.045,26.5481 131.5,27.5C 133.396,28.4656 135.396,28.7989 137.5,28.5C 137.5,29.8333 137.5,31.1667 137.5,32.5C 135.5,32.5 133.5,32.5 131.5,32.5C 131.421,33.9305 131.754,35.2638 132.5,36.5C 134.5,37.1667 136.5,37.8333 138.5,38.5C 137.754,39.7362 137.421,41.0695 137.5,42.5C 131.343,43.0806 125.51,42.0806 120,39.5C 118.165,42.858 115.998,43.1913 113.5,40.5C 110.588,43.3103 108.255,42.8103 106.5,39C 108.314,36.5185 108.98,33.6852 108.5,30.5C 107.5,30.5 106.5,30.5 105.5,30.5C 105.5,29.1667 105.5,27.8333 105.5,26.5C 106.5,26.5 107.5,26.5 108.5,26.5C 107.134,23.9359 105.467,21.4359 103.5,19C 106.409,16.0151 108.409,12.5151 109.5,8.5 Z M 116.5,16.5 C 118.139,18.6393 120.139,18.9726 122.5,17.5C 123.561,20.2945 122.394,21.6279 119,21.5C 115.883,20.4607 112.716,19.6273 109.5,19C 111.833,17.957 114.166,17.1237 116.5,16.5 Z M 112.5,23.5 C 114.011,24.5025 115.678,25.1692 117.5,25.5C 117.665,28.8499 117.498,32.1832 117,35.5C 116.593,31.6695 115.26,31.0028 113,33.5C 112.517,32.552 112.351,31.552 112.5,30.5C 113.833,30.5 115.167,30.5 116.5,30.5C 116.5,29.1667 116.5,27.8333 116.5,26.5C 115.167,26.5 113.833,26.5 112.5,26.5C 112.5,25.5 112.5,24.5 112.5,23.5 Z M 121.5,26.5 C 123.604,26.2011 125.604,26.5344 127.5,27.5C 126.5,27.8333 125.5,28.1667 124.5,28.5C 122.97,28.3601 121.97,27.6935 121.5,26.5 Z M 121.5,32.5 C 123.5,32.5 125.5,32.5 127.5,32.5C 127.5,34.1667 127.5,35.8333 127.5,37.5C 123.808,37.6757 121.808,36.0091 121.5,32.5 Z"/></g>
<g><path style="opacity:1" fill="#ecedec" d="M 72.5,11.5 C 80.1705,12.7784 87.8372,12.7784 95.5,11.5C 95.5,13.1667 95.5,14.8333 95.5,16.5C 87.8333,16.5 80.1667,16.5 72.5,16.5C 72.5,14.8333 72.5,13.1667 72.5,11.5 Z"/></g>
<g><path style="opacity:1" fill="#f1f6f9" d="M 37.5,33.5 C 31.9738,33.8214 26.6405,33.4881 21.5,32.5C 22.4778,32.189 23.1445,31.5223 23.5,30.5C 14.2865,25.9432 13.2865,20.1098 20.5,13C 26.1667,12.3333 31.8333,12.3333 37.5,13C 36.3128,14.0195 35.3128,15.1861 34.5,16.5C 41.8273,18.8194 43.994,23.4861 41,30.5C 39.9609,31.7101 38.7942,32.7101 37.5,33.5 Z"/></g>
<g><path style="opacity:1" fill="#ecedec" d="M 160.5,15.5 C 164.514,15.3345 168.514,15.5012 172.5,16C 173.26,17.4411 173.926,18.9411 174.5,20.5C 170.952,20.6186 167.285,20.7853 163.5,21C 156.489,27.4704 157.489,32.3038 166.5,35.5C 168.782,34.7766 171.116,34.4433 173.5,34.5C 173.5,36.1667 173.5,37.8333 173.5,39.5C 166.52,41.4823 160.02,40.4823 154,36.5C 149.271,27.1923 151.438,20.1923 160.5,15.5 Z"/></g>
<g><path style="opacity:1" fill="#ecedec" d="M 177.5,15.5 C 179.833,15.5 182.167,15.5 184.5,15.5C 184.621,23.8578 184.288,32.1912 183.5,40.5C 181.167,40.5 178.833,40.5 176.5,40.5C 177.407,32.2079 177.74,23.8746 177.5,15.5 Z"/></g>
<g><path style="opacity:1" fill="#ecedec" d="M 211.5,15.5 C 213.833,15.5 216.167,15.5 218.5,15.5C 218.5,16.8333 218.5,18.1667 218.5,19.5C 216.167,19.5 213.833,19.5 211.5,19.5C 211.5,18.1667 211.5,16.8333 211.5,15.5 Z"/></g>
<g><path style="opacity:1" fill="#ecedec" d="M 265.5,21.5 C 265.5,21.8333 265.5,22.1667 265.5,22.5C 263.037,24.4611 260.703,26.6278 258.5,29C 260.488,32.5013 262.822,35.668 265.5,38.5C 265.5,39.1667 265.5,39.8333 265.5,40.5C 262.753,40.8134 260.086,40.48 257.5,39.5C 253.375,30.0103 251.708,30.3437 252.5,40.5C 250.167,40.5 247.833,40.5 245.5,40.5C 246.371,32.2004 246.705,23.8671 246.5,15.5C 248.833,15.5 251.167,15.5 253.5,15.5C 253.335,18.8499 253.502,22.1832 254,25.5C 256.944,21.8864 260.777,20.5531 265.5,21.5 Z"/></g>
<g><path style="opacity:1" fill="#49bcf7" d="M 23.5,19.5 C 26.6399,18.3592 29.9733,18.1925 33.5,19C 32.9558,19.7172 32.2891,20.2172 31.5,20.5C 29.0521,19.5269 26.3854,19.1936 23.5,19.5 Z"/></g>
<g><path style="opacity:1" fill="#14a6f9" d="M 23.5,19.5 C 26.3854,19.1936 29.0521,19.5269 31.5,20.5C 31.1961,21.1499 30.8627,21.8165 30.5,22.5C 32.3413,23.2304 34.1746,23.8971 36,24.5C 36.7252,26.1575 36.2252,27.1575 34.5,27.5C 31.6146,27.8064 28.9479,27.4731 26.5,26.5C 26.8333,25.8333 27.1667,25.1667 27.5,24.5C 28.0431,24.44 28.3764,24.1067 28.5,23.5C 26.9547,22.5481 25.288,22.2148 23.5,22.5C 22.1667,21.5 22.1667,20.5 23.5,19.5 Z"/></g>
<g><path style="opacity:1" fill="#ecedec" d="M 68.5,20.5 C 78.8358,21.7966 89.1691,21.7966 99.5,20.5C 99.5,22.1667 99.5,23.8333 99.5,25.5C 94.8215,25.3342 90.1548,25.5008 85.5,26C 85.9574,26.414 86.2907,26.914 86.5,27.5C 84.1765,30.1261 81.8432,32.7928 79.5,35.5C 82.8757,36.7105 86.209,36.5438 89.5,35C 85.6321,32.2428 85.7988,30.0761 90,28.5C 93.7132,31.3928 96.5466,35.0594 98.5,39.5C 96.0244,42.0691 93.5244,42.0691 91,39.5C 84.1955,40.3954 77.3622,41.062 70.5,41.5C 70.5792,40.0695 70.2458,38.7362 69.5,37.5C 74.2251,35.1078 77.5584,31.4412 79.5,26.5C 75.8927,25.5108 72.226,25.1774 68.5,25.5C 68.5,23.8333 68.5,22.1667 68.5,20.5 Z"/></g>
<g><path style="opacity:1" fill="#ecedec" d="M 193.5,21.5 C 205.21,19.3781 210.043,24.0448 208,35.5C 201.951,41.6991 195.617,42.0324 189,36.5C 185.923,29.9393 187.423,24.9393 193.5,21.5 Z M 196.5,26.5 C 203.675,28.2145 204.175,31.2145 198,35.5C 193.963,33.1424 193.463,30.1424 196.5,26.5 Z"/></g>
<g><path style="opacity:1" fill="#ecedec" d="M 211.5,21.5 C 213.833,21.5 216.167,21.5 218.5,21.5C 218.653,27.8692 218.32,34.2026 217.5,40.5C 215.167,40.5 212.833,40.5 210.5,40.5C 211.372,34.2111 211.705,27.8778 211.5,21.5 Z"/></g>
<g><path style="opacity:1" fill="#ecedec" d="M 222.5,21.5 C 228.361,21.8976 234.361,22.0642 240.5,22C 241.966,23.5522 242.966,25.3855 243.5,27.5C 242.561,31.7649 242.228,36.0983 242.5,40.5C 240.167,40.5 237.833,40.5 235.5,40.5C 235.816,36.4754 235.983,32.4754 236,28.5C 234,25.8333 232,25.8333 230,28.5C 228.844,32.4183 228.344,36.4183 228.5,40.5C 226.167,40.5 223.833,40.5 221.5,40.5C 222.32,34.2026 222.653,27.8692 222.5,21.5 Z"/></g>
<g><path style="opacity:1" fill="#8cd5f9" d="M 23.5,22.5 C 25.288,22.2148 26.9547,22.5481 28.5,23.5C 28.3764,24.1067 28.0431,24.44 27.5,24.5C 26.1667,23.8333 24.8333,23.1667 23.5,22.5 Z"/></g>
<g><path style="opacity:1" fill="#7fd1f3" d="M 26.5,26.5 C 28.9479,27.4731 31.6146,27.8064 34.5,27.5C 31.6447,28.8032 28.6447,28.8032 25.5,27.5C 25.6236,26.8933 25.9569,26.56 26.5,26.5 Z"/></g>
<g><path style="opacity:1" fill="#98d7f4" d="M 21.5,32.5 C 26.6405,33.4881 31.9738,33.8214 37.5,33.5C 31.9871,34.8157 26.3204,34.8157 20.5,33.5C 20.6236,32.8933 20.9569,32.56 21.5,32.5 Z"/></g>
</svg>
