<?xml version="1.0" encoding="UTF-8"?>
<!DOCTYPE svg PUBLIC "-//W3C//DTD SVG 1.1//EN" "http://www.w3.org/Graphics/SVG/1.1/DTD/svg11.dtd">
<svg xmlns="http://www.w3.org/2000/svg" version="1.1" width="200px" height="200px" style="shape-rendering:geometricPrecision; text-rendering:geometricPrecision; image-rendering:optimizeQuality; fill-rule:evenodd; clip-rule:evenodd" xmlns:xlink="http://www.w3.org/1999/xlink">
<g><path style="opacity:1" fill="#00a8f9" d="M 43.5,-0.5 C 80.8333,-0.5 118.167,-0.5 155.5,-0.5C 178.086,5.75303 192.753,20.0864 199.5,42.5C 199.5,80.5 199.5,118.5 199.5,156.5C 192.753,178.914 178.086,193.247 155.5,199.5C 118.167,199.5 80.8333,199.5 43.5,199.5C 20.9139,193.247 6.2472,178.914 -0.5,156.5C -0.5,118.5 -0.5,80.5 -0.5,42.5C 6.2472,20.0864 20.9139,5.75303 43.5,-0.5 Z"/></g>
<g><path style="opacity:1" fill="#f6f8f8" d="M 72.5,50.5 C 94.8333,50.5 117.167,50.5 139.5,50.5C 135.416,58.6075 130.083,65.9408 123.5,72.5C 150.78,76.4001 163.28,92.0667 161,119.5C 156.192,137.165 144.692,147.332 126.5,150C 105.5,150.667 84.5,150.667 63.5,150C 62.5494,149.282 62.3828,148.449 63,147.5C 68.6453,141.534 73.812,135.201 78.5,128.5C 49.9652,123.759 37.7985,107.092 42,78.5C 47.5558,64.1096 57.7225,54.7762 72.5,50.5 Z"/></g>
<g><path style="opacity:1" fill="#0ea8f7" d="M 103.5,100.5 C 102.957,100.56 102.624,100.893 102.5,101.5C 110.138,102.497 117.804,102.831 125.5,102.5C 130.22,103.571 132.887,106.571 133.5,111.5C 132.837,115.341 130.837,118.175 127.5,120C 112.523,121.134 97.5229,121.967 82.5,122.5C 82.1667,122.333 81.8333,122.167 81.5,122C 87.5,114.667 93.5,107.333 99.5,100C 91.0642,99.9395 82.7309,99.2729 74.5,98C 67.2977,91.0871 67.9644,85.0871 76.5,80C 90.8781,79.8168 105.211,79.3168 119.5,78.5C 120.521,79.0016 120.688,79.6683 120,80.5C 114.636,87.3562 109.136,94.0229 103.5,100.5 Z"/></g>
<g><path style="opacity:1" fill="#35afe0" d="M 103.5,100.5 C 110.833,101.167 118.167,101.833 125.5,102.5C 117.804,102.831 110.138,102.497 102.5,101.5C 102.624,100.893 102.957,100.56 103.5,100.5 Z"/></g>
</svg>
